HIERARCHY
ROOT Pelvis
{
	OFFSET 0.000000 0.000000 0.000000
	CHANNELS 6 Xposition Yposition Zposition Xrotation Yrotation Zrotation
	JOINT LeftUpLeg_virtual
	{
		OFFSET 0.000000 0.000000 0.000000
		CHANNELS 3 Xrotation Yrotation Zrotation
		JOINT LeftUpLeg
		{
			OFFSET 18.735201 -5.666702 -4.541200
			CHANNELS 3 Xrotation Yrotation Zrotation
			JOINT LeftLeg
			{
				OFFSET -0.021200 -31.938179 0.493100
				CHANNELS 3 Xrotation Yrotation Zrotation
				JOINT LeftFoot
				{
					OFFSET 0.021200 -31.938179 -4.336299
					CHANNELS 3 Xrotation Yrotation Zrotation
					JOINT LeftToeBase
					{
						OFFSET 0.943001 -26.722000 15.023500
						CHANNELS 3 Xrotation Yrotation Zrotation
						End Site
						{
							OFFSET 0 0 0
						}
					}
				}
			}
		}
	}
	JOINT RightUpLeg_virtual
	{
		OFFSET 0.000000 0.000000 0.000000
		CHANNELS 3 Xrotation Yrotation Zrotation
		JOINT RightUpLeg
		{
			OFFSET -18.735201 -5.666702 -4.541200
			CHANNELS 3 Xrotation Yrotation Zrotation
			JOINT RightLeg
			{
				OFFSET 0.018946 -31.938133 0.493100
				CHANNELS 3 Xrotation Yrotation Zrotation
				JOINT RightFoot
				{
					OFFSET -0.018946 -31.938126 -4.336299
					CHANNELS 3 Xrotation Yrotation Zrotation
					JOINT RightToeBase
					{
						OFFSET -0.943001 -26.722004 15.023500
						CHANNELS 3 Xrotation Yrotation Zrotation
						End Site
						{
							OFFSET 0 0 0
						}
					}
				}
			}
		}
	}
	JOINT Hips_virtual
	{
		OFFSET 0.000000 0.000000 0.000000
		CHANNELS 3 Xrotation Yrotation Zrotation
		JOINT Hips
		{
			OFFSET -0.000000 -0.000000 -0.000000
			CHANNELS 3 Xrotation Yrotation Zrotation
			JOINT Spine
			{
				OFFSET 0.000000 10.199997 -0.299500
				CHANNELS 3 Xrotation Yrotation Zrotation
				JOINT Spine1
				{
					OFFSET 0.000000 11.900002 -1.516600
					CHANNELS 3 Xrotation Yrotation Zrotation
					JOINT Spine2
					{
						OFFSET 0.000000 13.600006 -2.842500
						CHANNELS 3 Xrotation Yrotation Zrotation
						JOINT Neck_virtual
						{
							OFFSET 0.000000 0.000000 0.000000
							CHANNELS 3 Xrotation Yrotation Zrotation
							JOINT Neck
							{
								OFFSET 0.000000 9.624100 -2.890100
								CHANNELS 3 Xrotation Yrotation Zrotation
								JOINT Head
								{
									OFFSET 0.000000 14.068802 -1.351900
									CHANNELS 3 Xrotation Yrotation Zrotation
									End Site
									{
										OFFSET 0 0 0
									}
								}
							}
						}
						JOINT LeftShoulder_virtual
						{
							OFFSET 0.000000 0.000000 0.000000
							CHANNELS 3 Xrotation Yrotation Zrotation
							JOINT LeftShoulder
							{
								OFFSET 15.263000 10.923401 -0.547700
								CHANNELS 3 Xrotation Yrotation Zrotation
								JOINT LeftArm
								{
									OFFSET 25.438599 -2.830597 -13.032500
									CHANNELS 3 Xrotation Yrotation Zrotation
									JOINT LeftForeArm
									{
										OFFSET 29.960503 0.000000 0.000000
										CHANNELS 3 Xrotation Yrotation Zrotation
										JOINT LeftHand
										{
											OFFSET 27.849251 0.000000 0.000000
											CHANNELS 3 Xrotation Yrotation Zrotation
											End Site
											{
												OFFSET 0 0 0
											}
										}
									}
								}
							}
						}
						JOINT RightShoulder_virtual
						{
							OFFSET 0.000000 0.000000 0.000000
							CHANNELS 3 Xrotation Yrotation Zrotation
							JOINT RightShoulder
							{
								OFFSET -15.263000 10.923401 -0.547700
								CHANNELS 3 Xrotation Yrotation Zrotation
								JOINT RightArm
								{
									OFFSET -25.438599 -2.830597 -13.032500
									CHANNELS 3 Xrotation Yrotation Zrotation
									JOINT RightForeArm
									{
										OFFSET -29.960503 0.000000 0.000000
										CHANNELS 3 Xrotation Yrotation Zrotation
										JOINT RightHand
										{
											OFFSET -27.849251 0.000000 0.000000
											CHANNELS 3 Xrotation Yrotation Zrotation
											End Site
											{
												OFFSET 0 0 0
											}
										}
									}
								}
							}
						}
					}
				}
			}
		}
	}
}
MOTION
Frames: 4
Frame Time: 0.03333333
-1.399437 93.040092 2.259220 0.000000 0.000000 0.000000 6.910163 -17.173959 -0.492059 -32.858493 7.052950 14.805396 32.892552 4.340519 -1.765211 -14.300934 5.397761 -5.290875 0.000000 0.000000 0.000000 10.331436 -12.487950 2.083737 -17.071342 -9.453351 -14.309934 29.988229 5.427761 -1.167650 -18.598378 1.861987 12.392869 0.000000 0.000000 0.000000 -1.001169 -19.227568 0.802365 5.972379 -4.076607 -2.046527 7.087877 -1.398680 0.181718 1.429031 -0.465074 0.450278 0.000000 0.000000 0.000000 -0.300815 2.284423 0.305814 -1.398748 2.501097 -0.567506 0.000000 0.000000 0.000000 0.620673 -1.201600 1.787073 0.742007 -7.342926 -0.221128 -41.093597 -14.438322 -38.317600 -9.441717 -57.269132 -3.556783 0.000000 0.000000 0.000000 2.688003 -0.866891 1.639643 3.218892 6.803931 9.684226 12.719096 -2.635163 50.869712 5.997581 36.438069 1.211602 0.000000 0.000000 0.000000 
-1.368492 93.041939 2.241500 0.000000 0.000000 0.000000 6.916635 -17.245108 -0.508622 -32.870661 7.047148 14.791048 32.895885 4.355823 -1.770110 -14.298021 5.419945 -5.299896 0.000000 0.000000 0.000000 10.331523 -12.504722 2.094227 -17.076521 -9.456443 -14.297095 29.992624 5.432301 -1.190508 -18.607674 1.880250 12.346574 0.000000 0.000000 0.000000 -1.042539 -19.406864 0.806382 6.050530 -3.841616 -2.154342 7.087864 -1.409700 0.150669 1.408414 -0.438936 0.471904 0.000000 0.000000 0.000000 -0.316004 2.267680 0.328943 -1.385939 2.525916 -0.582777 0.000000 0.000000 0.000000 0.612980 -1.229936 1.781419 0.764894 -7.321845 -0.266353 -41.281465 -14.675058 -38.175266 -9.397120 -57.373350 -3.617714 0.000000 0.000000 0.000000 2.655215 -0.843086 1.676849 3.288017 6.920742 9.693458 12.775900 -2.801602 50.875634 5.941153 36.530027 1.247767 0.000000 0.000000 0.000000 
-1.313588 93.040970 2.205971 0.000000 0.000000 0.000000 6.923319 -17.366016 -0.542092 -32.896609 7.037941 14.762522 32.904286 4.383294 -1.779310 -14.290927 5.460406 -5.317368 0.000000 0.000000 0.000000 10.332324 -12.530779 2.114743 -17.085040 -9.461167 -14.271136 29.997771 5.436399 -1.227135 -18.625403 1.906883 12.267335 0.000000 0.000000 0.000000 -1.136494 -19.752818 0.810034 6.210911 -3.390956 -2.349955 7.080852 -1.422177 0.096134 1.367902 -0.390829 0.510568 0.000000 0.000000 0.000000 -0.346796 2.236649 0.370701 -1.360480 2.571592 -0.611566 0.000000 0.000000 0.000000 0.604430 -1.280891 1.770447 0.808716 -7.280126 -0.345178 -41.630242 -15.098032 -37.904353 -9.313464 -57.561030 -3.730244 0.000000 0.000000 0.000000 2.598460 -0.800354 1.743581 3.421712 7.129552 9.701423 12.871718 -3.120936 50.893488 5.837031 36.699020 1.316976 0.000000 0.000000 0.000000 
-1.245496 93.029503 2.156100 0.000000 0.000000 0.000000 6.921205 -17.502805 -0.592351 -32.937774 7.029093 14.720519 32.919692 4.417690 -1.792420 -14.278393 5.512914 -5.343356 0.000000 0.000000 0.000000 10.335344 -12.555007 2.143358 -17.092910 -9.465437 -14.233231 29.997006 5.432800 -1.263649 -18.650962 1.927085 12.175932 0.000000 0.000000 0.000000 -1.298758 -20.240924 0.806623 6.455131 -2.758202 -2.603272 7.058580 -1.422225 0.030516 1.308626 -0.328461 0.559070 0.000000 0.000000 0.000000 -0.392139 2.195759 0.423301 -1.322659 2.631700 -0.651035 0.000000 0.000000 0.000000 0.605258 -1.345126 1.755476 0.870280 -7.218699 -0.438032 -42.094172 -15.628340 -37.534587 -9.202993 -57.803522 -3.881935 0.000000 0.000000 0.000000 2.532195 -0.746846 1.827172 3.610590 7.388463 9.692416 12.977190 -3.569583 50.934729 5.698878 36.922968 1.414150 0.000000 0.000000 0.000000 
